<?xml version="1.0" encoding="utf-8"?>
<!-- Generator: Adobe Illustrator 26.0.3, SVG Export Plug-In . SVG Version: 6.00 Build 0)  -->
<svg version="1.1" id="Layer_1" xmlns="http://www.w3.org/2000/svg" xmlns:xlink="http://www.w3.org/1999/xlink" x="0px" y="0px"
	 viewBox="0 0 175.1 54.1" style="enable-background:new 0 0 175.1 54.1;" xml:space="preserve">
<path d="M167,6.8c-18.4-5.6-41.9-8-60.4-0.1c-1.8,0.6-3.3,1.4-4.7,2.3c-2,1.1-4,2.4-5.9,3.9c-2.8,0-5.7,0-8.5,0c-2.8,0-5.7,0-8.5,0
	c-1.9-1.5-3.8-2.8-5.9-3.9c-1.4-1-2.9-1.7-4.7-2.3c-18.4-8-42-5.5-60.4,0.1C3.6,8.2,4.9,15,9,15.1c-0.1,1.4-0.1,3,0,4.7
	c0,1.1,0.1,2.2,0.1,3.5c0,14.5,10.8,29.2,35,29.2c20.2,0,33.9-15.9,34.5-31.1c0.2,0,0.4,0,0.6,0c2.8,0.1,5.6,0,8.4,0
	c2.8,0,5.6,0.1,8.4,0c0.2,0,0.4,0,0.6,0c0.7,15.2,14.4,31.1,34.5,31.1c24.2,0,35.1-14.6,35.1-29.2c0-1.3,0-2.4,0.1-3.5
	c0-1.7,0.1-3.3,0-4.7C170.3,15,171.7,8.2,167,6.8z M44.1,47.8c-21,0-30.3-12.3-30.3-24.5c0-1.3,0-2.5-0.1-3.6
	c-0.1-2.6-0.1-4.5,0.2-5.8c9.9-2.6,20.3-3.8,30.4-3.5c8.9,0.2,18,1.8,25.7,6.4c1.5,0.9,2.7,1.9,3.9,2.7c0,0.2,0,0.5,0,0.7
	C74,33.5,62,47.8,44.1,47.8z M161.5,19.7c0,1.1-0.1,2.3-0.1,3.6c0,12.2-9.4,24.5-30.3,24.5c-17.9,0-29.9-14.2-29.9-27.6
	c0-0.2,0-0.5,0-0.7c1.3-0.8,2.5-1.8,3.9-2.7c7.7-4.6,16.9-6.1,25.7-6.4c10.1-0.3,20.6,0.9,30.4,3.5
	C161.6,15.3,161.6,17.1,161.5,19.7z"/>
</svg>
