<?xml version="1.0" encoding="utf-8"?>
<!-- Generator: Adobe Illustrator 26.0.3, SVG Export Plug-In . SVG Version: 6.00 Build 0)  -->
<svg version="1.1" id="Layer_1" xmlns="http://www.w3.org/2000/svg" xmlns:xlink="http://www.w3.org/1999/xlink" x="0px" y="0px"
	 viewBox="0 0 492.7 258.2" style="enable-background:new 0 0 492.7 258.2;" xml:space="preserve">
<style type="text/css">
	.st0{fill:#FFFFFF;}
</style>
<path class="st0" d="M443.1,0H49.5C22.3,0,0,22.3,0,49.5v159.1c0,27.2,22.3,29.5,49.5,29.5l160,20c3,0,5.5-2.2,5.8-5.2l9.1-55.2
	c0-6.6,5.4-12,12-12h19.1c6.6,0,12,5.4,12,12l9.1,55.2c0.4,3,2.9,5.2,5.8,5.2l160.6-20c27.2,0,49.5-2.3,49.5-29.5V49.5
	C492.7,22.3,470.4,0,443.1,0z"/>
<path d="M480.4,66.8c-54.2-16.5-123.5-23.7-177.8-0.2c-5.2,1.7-9.8,4-13.8,6.8c-6,3.4-11.8,7.2-17.2,11.5c-8.3,0-16.6,0-25,0
	s-16.6,0-25,0c-5.5-4.3-11.2-8.1-17.2-11.5c-4-2.8-8.6-5.1-13.8-6.8C136.3,43.2,67,50.4,12.9,66.8C-0.9,71,3,91,15.2,91.5
	c-0.3,4.2-0.2,8.9-0.1,13.9c0.1,3.2,0.2,6.6,0.2,10.3c0,42.7,31.9,85.9,103.2,85.9c59.4,0,99.8-46.8,101.7-91.7
	c0.5,0,1.1,0.1,1.7,0.1c8.2,0.2,16.5,0,24.7,0c8.2,0,16.5,0.2,24.7,0c0.6,0,1.1-0.1,1.7-0.1c1.9,44.9,42.3,91.7,101.7,91.7
	c71.3,0,103.2-43.1,103.2-85.9c0-3.7,0.1-7.1,0.2-10.3c0.1-5,0.2-9.6-0.1-13.9C490.2,91,494.2,71,480.4,66.8z M118.5,187.6
	c-61.7,0-89.4-36.2-89.4-72c0-3.8-0.1-7.3-0.2-10.6c-0.2-7.7-0.2-13.1,0.6-17c29-7.7,59.8-11.2,89.6-10.4c26.1,0.7,53,5.2,75.7,18.8
	c4.3,2.6,7.9,5.5,11.5,7.9c0,0.7,0.1,1.4,0.1,2.1C206.5,145.7,171.1,187.6,118.5,187.6z M464.3,105c-0.1,3.3-0.2,6.8-0.2,10.6
	c0,35.9-27.6,72-89.4,72c-52.6,0-88-42-88-81.2c0-0.7,0-1.4,0.1-2.1c3.7-2.5,7.3-5.4,11.5-8C321,82.9,348,78.3,374.1,77.6
	c29.8-0.8,60.5,2.7,89.6,10.4C464.5,91.9,464.5,97.3,464.3,105z"/>
</svg>
