<?xml version="1.0" encoding="utf-8"?>
<!-- Generator: Adobe Illustrator 26.0.3, SVG Export Plug-In . SVG Version: 6.00 Build 0)  -->
<svg version="1.1" id="Layer_1" xmlns="http://www.w3.org/2000/svg" xmlns:xlink="http://www.w3.org/1999/xlink" x="0px" y="0px"
	 viewBox="0 0 164.7 163.2" style="enable-background:new 0 0 164.7 163.2;" xml:space="preserve">
<style type="text/css">
	.st0{fill:#FFFFFF;}
</style>
<circle class="st0" cx="82.6" cy="81.2" r="80.1"/>
<path d="M161.7,61.4c-18.4-5.6-41.9-8-60.4-0.1c-1.8,0.6-3.3,1.4-4.7,2.3c-2,1.1-4,2.4-5.9,3.9c-2.8,0-5.7,0-8.5,0s-5.7,0-8.5,0
	c-1.9-1.5-3.8-2.8-5.9-3.9c-1.4-1-2.9-1.7-4.7-2.3c-18.4-8-42-5.5-60.4,0.1c-4.4,1.4-3.1,8.2,1,8.3c-0.1,1.4-0.1,3,0,4.7
	c0,1.1,0.1,2.2,0.1,3.5c0,14.5,10.8,29.2,35,29.2c20.2,0,33.9-15.9,34.5-31.1c0.2,0,0.4,0,0.6,0c2.8,0.1,5.6,0,8.4,0s5.6,0.1,8.4,0
	c0.2,0,0.4,0,0.6,0c0.7,15.2,14.4,31.1,34.5,31.1c24.2,0,35.1-14.6,35.1-29.2c0-1.3,0-2.4,0.1-3.5c0-1.7,0.1-3.3,0-4.7
	C165,69.6,166.4,62.8,161.7,61.4z M38.8,102.4c-21,0-30.3-12.3-30.3-24.5c0-1.3,0-2.5-0.1-3.6c-0.1-2.6-0.1-4.5,0.2-5.8
	c9.9-2.6,20.3-3.8,30.4-3.5c8.9,0.2,18,1.8,25.7,6.4c1.5,0.9,2.7,1.9,3.9,2.7c0,0.2,0,0.5,0,0.7C68.7,88.1,56.7,102.4,38.8,102.4z
	 M156.2,74.3c0,1.1-0.1,2.3-0.1,3.6c0,12.2-9.4,24.5-30.3,24.5c-17.9,0-29.9-14.2-29.9-27.6c0-0.2,0-0.5,0-0.7
	c1.3-0.8,2.5-1.8,3.9-2.7c7.7-4.6,16.9-6.1,25.7-6.4c10.1-0.3,20.6,0.9,30.4,3.5C156.3,69.9,156.3,71.7,156.2,74.3z"/>
</svg>
